# xmcd
#
# Track frame offsets:
#	150
#	18010
#	32548
#	50495
#	69495
#	88090
#	102581
#	124072
#	143301
#	157854
#	173458
#	191810
#
# Disc length: 2788 seconds
# Revision: 0
# Processed by: cddbd v1.5.2PL0 Copyright (c) Steve Scherf et al.
# Submitted via: dBpowerAMP V12.0
#
DISCID=8e0ae20c
DTITLE=Lil Witness - Strikin' Cold
DYEAR=2006
DGENRE=
TTITLE0=Set, Set It Off
TTITLE1=Sufferin' Now
TTITLE2=No Way Around It
TTITLE3=The Look
TTITLE4=Stick Em Up Give It Up
TTITLE5=Really Tho
TTITLE6=The Lamb
TTITLE7=Get Blazed Up
TTITLE8=Move Move
TTITLE9=Lift My Bread Up
TTITLE10=Strikin' Cold
TTITLE11=Don't Let Me Go ft.Prince Blakk
EXTD=
EXTT0=
EXTT1=
EXTT2=
EXTT3=
EXTT4=
EXTT5=
EXTT6=
EXTT7=
EXTT8=
EXTT9=
EXTT10=
EXTT11=
PLAYORDER=
